<?xml version="1.0" standalone="no"?><!DOCTYPE svg PUBLIC "-//W3C//DTD SVG 1.1//EN" "http://www.w3.org/Graphics/SVG/1.1/DTD/svg11.dtd"><svg t="1558080170880" class="icon" style="" viewBox="0 0 1024 1024" version="1.1" xmlns="http://www.w3.org/2000/svg" p-id="1040" xmlns:xlink="http://www.w3.org/1999/xlink" width="200" height="200"><defs><style type="text/css"></style></defs><path d="M407.6544 643.4816c-6.5536-0.1024-13.1072-0.8192-19.5584-1.9456l0.7168-5.0176c6.2464 1.1264 12.4928 1.7408 18.8416 1.8432v5.12z m5.0176-0.2048l-0.3072-5.12c7.8848-0.6144 12.8-2.9696 14.5408-6.8608l4.3008 2.1504c-2.4576 5.9392-8.6016 9.1136-18.5344 9.8304z m-29.2864-2.56c-6.3488-1.2288-12.6976-2.6624-18.944-4.1984l1.1264-4.9152c6.8608 1.7408 13.2096 3.072 18.7392 4.1984l-0.9216 4.9152z m-23.7568-5.4272c-6.2464-1.6384-12.4928-3.3792-18.7392-5.12l1.2288-4.9152c6.2464 1.8432 12.4928 3.584 18.6368 5.12l-1.1264 4.9152z m-23.3472-6.5536c-6.2464-1.8432-12.4928-3.6864-18.5344-5.5296l1.3312-4.9152c6.144 1.8432 12.288 3.7888 18.5344 5.5296l-1.3312 4.9152z m93.9008-1.3312l-2.3552-0.1024c0-4.9152-1.9456-10.752-5.7344-17.92l4.1984-2.56c4.3008 7.9872 6.3488 14.5408 6.3488 19.968l-2.4576 0.6144z m-117.1456-5.632l-1.4336-0.4096c-5.8368-1.7408-11.5712-3.4816-17.1008-5.12l1.2288-4.9152c5.5296 1.6384 11.264 3.3792 17.1008 5.12l1.4336 0.4096-1.2288 4.9152z m-23.1424-6.8608c-6.144-1.8432-12.3904-3.4816-18.6368-5.12l1.1264-4.9152c5.7344 1.4336 11.9808 3.1744 18.7392 5.12l-1.2288 4.9152z m-23.2448-6.2464c-4.1984-1.024-8.3968-1.7408-12.6976-2.1504l0.4096-5.12c4.5056 0.512 8.9088 1.3312 13.312 2.3552l-1.024 4.9152z m152.9856-3.4816c-3.3792-5.632-7.0656-11.1616-11.0592-16.384l3.6864-3.1744c4.096 5.4272 7.8848 11.0592 11.4688 16.896l-4.096 2.6624zM405.504 584.8064c-4.096-5.2224-8.2944-10.3424-12.5952-15.36l3.4816-3.3792c4.4032 5.0176 8.6016 10.24 12.6976 15.5648l-3.584 3.1744z m-15.7696-19.0464c-4.4032-5.0176-8.8064-9.9328-13.312-14.7456l3.3792-3.584c4.8128 5.2224 9.3184 10.1376 13.4144 14.848l-3.4816 3.4816z m-16.6912-18.3296c-4.5056-4.8128-9.1136-9.6256-13.7216-14.336l3.2768-3.6864c4.9152 5.0176 9.5232 9.8304 13.824 14.336l-3.3792 3.6864z m-17.2032-17.8176c-4.608-4.7104-9.3184-9.4208-14.0288-14.0288l3.2768-3.7888c4.9152 4.8128 9.6256 9.5232 14.0288 14.0288l-3.2768 3.7888z m-17.5104-17.5104c-4.5056-4.4032-9.3184-9.0112-14.2336-13.7216l3.1744-3.7888c4.9152 4.7104 9.728 9.3184 14.2336 13.824l-3.1744 3.6864zM320.512 494.8992c-4.8128-4.5056-9.5232-9.1136-14.4384-13.6192l3.1744-3.7888c4.8128 4.5056 9.6256 9.0112 14.4384 13.6192l-3.1744 3.7888z m-18.0224-16.9984l-7.168-6.656c-2.4576-2.2528-4.9152-4.608-7.2704-6.9632l3.1744-3.7888c2.3552 2.2528 4.7104 4.5056 7.2704 6.8608l7.168 6.656-3.1744 3.8912z m-18.0224-16.9984c-4.7104-4.7104-9.3184-9.5232-13.824-14.5408l3.4816-3.4816c4.4032 4.9152 8.9088 9.728 13.5168 14.336l-3.1744 3.6864z m-17.1008-18.432c-4.4032-5.12-8.4992-10.5472-12.288-16.0768l3.8912-2.9696c3.7888 5.4272 7.7824 10.6496 11.9808 15.6672l-3.584 3.3792z m-15.0528-20.3776c-3.6864-5.7344-6.8608-11.9808-9.5232-18.432l4.4032-1.9456c2.4576 6.144 5.5296 11.9808 9.0112 17.5104l-3.8912 2.8672z m-11.264-23.3472c-1.8432-5.632-2.7648-11.4688-2.8672-17.408 0-1.3312 0-2.56 0.2048-3.8912l4.7104 0.4096c-0.1024 1.1264-0.1024 2.2528-0.1024 3.3792 0.1024 5.3248 0.9216 10.6496 2.6624 15.7696l-4.608 1.7408z m617.5744-5.632c-5.9392-2.56-11.8784-5.0176-17.92-7.3728l1.6384-4.8128c6.3488 2.4576 12.288 4.9152 18.1248 7.4752l-1.8432 4.7104z m-22.4256-9.1136c-6.0416-2.2528-12.0832-4.5056-18.2272-6.5536l1.4336-4.8128c6.144 2.048 12.288 4.3008 18.3296 6.5536l-1.536 4.8128z m-22.8352-7.9872c-6.144-2.048-12.288-3.9936-18.432-5.9392l1.3312-4.9152c6.3488 1.9456 12.4928 3.8912 18.5344 5.9392l-1.4336 4.9152z m-569.5488-2.7648l-4.7104-1.1264c1.536-7.0656 4.7104-13.6192 9.3184-19.0464l3.584 3.3792c-3.9936 4.8128-6.8608 10.5472-8.192 16.7936z m546.6112-4.5056c-6.0416-1.8432-12.1856-3.584-18.5344-5.3248l1.2288-4.9152c6.3488 1.7408 12.5952 3.584 18.6368 5.4272l-1.3312 4.8128z m-23.2448-6.656c-6.144-1.6384-12.288-3.2768-18.6368-4.9152l1.1264-4.9152c6.3488 1.6384 12.5952 3.2768 18.7392 4.9152l-1.2288 4.9152z m-23.3472-6.144c-6.144-1.536-12.3904-3.072-18.7392-4.5056l1.024-5.0176c6.3488 1.4336 12.5952 2.9696 18.8416 4.5056l-1.1264 5.0176z m-488.6528-3.072L251.904 349.184c4.9152-4.8128 10.3424-8.9088 16.1792-12.1856l2.2528 4.5056c-5.5296 3.072-10.5472 6.9632-15.1552 11.3664z m465.2032-2.4576c-6.2464-1.4336-12.4928-2.7648-18.8416-4.1984l0.9216-5.0176c6.3488 1.3312 12.6976 2.7648 18.944 4.1984l-1.024 5.0176z m-23.552-5.2224c-6.2464-1.3312-12.5952-2.56-18.944-3.7888l0.9216-5.0176c6.3488 1.2288 12.6976 2.56 18.944 3.8912l-0.9216 4.9152z m-23.552-4.7104c-6.2464-1.2288-12.5952-2.3552-18.944-3.4816l0.8192-5.0176c6.3488 1.1264 12.6976 2.3552 19.0464 3.4816l-0.9216 5.0176z m-398.7456-1.2288l-2.048-4.608c5.9392-2.9696 11.9808-5.5296 18.1248-7.68l1.536 4.8128c-6.0416 2.1504-11.8784 4.608-17.6128 7.4752z m375.0912-3.1744c-6.2464-1.1264-12.5952-2.1504-18.944-3.1744l0.7168-5.0176c6.3488 1.024 12.6976 2.048 19.0464 3.1744l-0.8192 5.0176z m-23.7568-3.8912c-6.3488-1.024-12.6976-1.9456-19.0464-2.8672l0.6144-5.0176c6.3488 0.9216 12.6976 1.9456 19.0464 2.8672l-0.6144 5.0176z m-329.216-1.8432l-1.3312-4.9152c5.8368-1.8432 12.0832-3.584 18.8416-5.12l1.024 5.0176c-6.656 1.536-12.8 3.2768-18.5344 5.0176z m305.4592-1.7408c-6.3488-0.9216-12.6976-1.7408-19.0464-2.56l0.6144-5.0176c6.3488 0.8192 12.8 1.7408 19.1488 2.56l-0.7168 5.0176z m-23.8592-3.2768c-6.3488-0.8192-12.6976-1.536-19.1488-2.2528l0.512-5.0176c6.3488 0.7168 12.8 1.536 19.2512 2.2528l-0.6144 5.0176z m-258.4576-1.024l-0.9216-5.0176c6.3488-1.3312 12.6976-2.4576 19.1488-3.4816l0.7168 5.0176c-6.3488 1.024-12.5952 2.2528-18.944 3.4816z m234.496-1.7408c-6.3488-0.7168-12.8-1.3312-19.1488-1.9456l0.4096-5.12c6.3488 0.6144 12.8 1.2288 19.2512 1.9456l-0.512 5.12z m-210.8416-2.3552l-0.6144-5.0176c6.3488-0.9216 12.8-1.6384 19.2512-2.2528l0.4096 5.12c-6.5536 0.6144-12.9024 1.3312-19.0464 2.1504z m186.9824-0.1024c-6.4512-0.6144-12.8-1.1264-19.1488-1.6384l0.3072-5.12c6.3488 0.512 12.8 1.024 19.2512 1.6384l-0.4096 5.12z m-23.9616-1.9456c-6.4512-0.512-12.8-0.9216-19.1488-1.2288l0.3072-5.12c6.3488 0.4096 12.8 0.8192 19.2512 1.2288l-0.4096 5.12z m-139.1616-0.6144l-0.4096-5.12c6.4512-0.6144 12.9024-1.024 19.3536-1.3312l0.2048 5.12c-6.3488 0.3072-12.8 0.8192-19.1488 1.3312z m115.0976-0.9216c-6.4512-0.3072-12.8-0.6144-19.2512-0.8192l0.2048-5.12c6.3488 0.2048 12.8 0.512 19.3536 0.8192l-0.3072 5.12z m-91.136-0.7168l-0.2048-5.0176c6.3488-0.3072 12.8-0.512 19.3536-0.6144l0.1024 5.12c-6.656 0.1024-13.0048 0.3072-19.2512 0.512z m67.1744-0.3072c-6.4512-0.2048-12.9024-0.3072-19.2512-0.4096l0.1024-5.12c6.3488 0.1024 12.8 0.2048 19.3536 0.4096l-0.2048 5.12z m-43.3152-0.4096l-0.1024-5.12c4.3008-0.1024 8.6016-0.1024 13.0048-0.1024h6.2464v5.12H428.032c-4.1984 0-8.4992 0.1024-12.9024 0.1024z m0 0" fill="#D9D9D9" p-id="1041"></path><path d="M260.096 711.5776a300.1344 87.8592 0 1 0 600.2688 0 300.1344 87.8592 0 1 0-600.2688 0Z" fill="#DFF4FB" p-id="1042"></path><path d="M310.0672 711.5776a250.1632 44.8512 0 1 0 500.3264 0 250.1632 44.8512 0 1 0-500.3264 0Z" fill="#BDE0FF" p-id="1043"></path><path d="M203.4688 593.6128c0 19.1488 15.5648 34.7136 34.7136 34.7136s34.7136-15.5648 34.7136-34.7136-15.5648-34.7136-34.7136-34.7136-34.7136 15.5648-34.7136 34.7136z m0 0" fill="#F98C8C" p-id="1044"></path><path d="M237.568 394.4448c5.632 0.9216 11.3664-1.2288 15.0528-5.632 3.6864-4.4032 4.7104-10.4448 2.6624-15.872-2.048-5.4272-6.7584-9.3184-12.3904-10.24-5.632-0.9216-11.3664 1.2288-15.0528 5.632-3.6864 4.4032-4.7104 10.4448-2.6624 15.872 2.048 5.3248 6.7584 9.216 12.3904 10.24z m0 0" fill="#F7D462" p-id="1045"></path><path d="M541.184 703.1808h-90.2144c-12.288 0-22.3232-10.0352-22.3232-22.3232V351.4368L333.6192 370.688c-4.7104 0.9216-8.8064 3.6864-11.4688 7.7824-2.6624 3.9936-3.584 8.9088-2.6624 13.6192l65.6384 324.3008c2.048 9.8304 11.6736 16.0768 21.504 13.9264l134.5536-27.136z m0 0" fill="#DFF3FF" p-id="1046"></path><path d="M730.2144 327.7824H450.9696c-7.7824 0-14.1312 6.3488-14.1312 14.1312v338.8416c0 3.7888 1.4336 7.3728 4.096 9.9328 2.6624 2.6624 6.2464 4.096 9.9328 4.096H730.112c3.7888 0 7.3728-1.536 9.9328-4.096 2.6624-2.6624 4.096-6.2464 4.096-9.9328V341.9136c0-3.7888-1.536-7.3728-4.096-9.9328-2.4576-2.6624-6.0416-4.1984-9.8304-4.1984z" fill="#DFF3FF" p-id="1047"></path><path d="M673.0752 446.5664c0 6.656-2.6624 13.1072-7.3728 17.8176-4.7104 4.7104-11.1616 7.3728-17.8176 7.3728h-114.688c-6.656 0-13.1072-2.6624-17.8176-7.3728-4.7104-4.7104-7.3728-11.1616-7.3728-17.8176v-18.944c0-13.9264 11.264-25.1904 25.1904-25.1904h114.7904c6.656 0 13.1072 2.6624 17.8176 7.3728 4.7104 4.7104 7.3728 11.1616 7.3728 17.8176l-0.1024 18.944zM477.3888 687.9232h-26.624c-2.2528 0-4.4032-0.9216-5.9392-2.4576s-2.4576-3.6864-2.4576-5.9392V340.8896c0-2.2528 0.9216-4.4032 2.4576-5.9392s3.6864-2.4576 5.9392-2.4576h26.7264c2.2528 0 4.4032 0.9216 5.9392 2.4576s2.4576 3.6864 2.4576 5.9392v338.7392c-0.1024 4.608-3.8912 8.2944-8.4992 8.2944z" fill="#DFF3FF" p-id="1048"></path><path d="M428.6464 341.9136v1.1264l-96.768 19.5584c-14.2336 2.8672-23.4496 16.7936-20.5824 31.0272l30.9248 152.7808 34.9184 171.52c2.56 12.1856 13.312 20.992 25.7024 20.992 1.7408 0 3.584-0.2048 5.3248-0.512L579.584 703.6928v-0.7168h151.04c12.288 0 22.3232-10.0352 22.3232-22.3232V341.9136c0-12.288-10.0352-22.3232-22.3232-22.3232H450.9696c-12.288 0-22.3232 10.0352-22.3232 22.3232z m315.6992 338.8416c0 3.7888-1.536 7.3728-4.096 9.9328-2.6624 2.6624-6.2464 4.096-9.9328 4.096H450.9696c-3.6864 0-7.2704-1.536-9.9328-4.096-2.6624-2.6624-4.096-6.2464-4.096-9.9328V341.9136c0-7.7824 6.3488-14.1312 14.1312-14.1312h279.2448c3.7888 0 7.3728 1.4336 9.9328 4.096 2.6624 2.6624 4.096 6.2464 4.096 9.9328v338.944z m-351.5392 47.0016c-3.9936-2.6624-6.8608-6.7584-7.7824-11.4688l-65.536-324.3008c-0.9216-4.7104 0-9.6256 2.6624-13.6192 2.6624-3.9936 6.7584-6.7584 11.4688-7.7824l95.1296-19.2512v329.4208c0 12.288 10.0352 22.3232 22.3232 22.3232h90.2144l-134.5536 27.136c-4.8128 1.1264-9.8304 0.2048-13.9264-2.4576z m0 0" fill="#4BA8E8" p-id="1049"></path><path d="M671.9488 402.6368H557.1584c-13.9264 0-25.1904 11.264-25.1904 25.1904v18.944c0 13.9264 11.264 25.1904 25.1904 25.1904h114.7904c6.656 0 13.1072-2.6624 17.8176-7.3728 4.7104-4.7104 7.3728-11.1616 7.3728-17.8176v-19.1488c-0.1024-13.824-11.3664-24.9856-25.1904-24.9856z" fill="#F7D462" p-id="1050"></path><path d="M688.7424 446.5664c0 4.4032-1.7408 8.704-4.9152 11.8784-3.1744 3.1744-7.3728 4.9152-11.8784 4.9152H557.1584c-4.4032 0-8.704-1.7408-11.8784-4.9152-3.1744-3.1744-4.9152-7.3728-4.9152-11.8784v-19.0464c0-4.4032 1.7408-8.704 4.9152-11.8784 3.1744-3.1744 7.3728-4.9152 11.8784-4.9152h114.7904c4.4032 0 8.704 1.7408 11.8784 4.9152 3.1744 3.1744 4.9152 7.3728 4.9152 11.8784v19.0464z" fill="#FFFFFF" p-id="1051"></path><path d="M664.2688 445.0304h-99.5328c-8.8064 0.4096-16.1792-6.4512-16.5888-15.1552v14.9504c0.4096 8.704 7.7824 15.4624 16.5888 15.0528h99.5328c8.8064 0.4096 16.1792-6.4512 16.5888-15.1552v-14.9504c-0.2048 4.1984-2.048 8.192-5.12 11.0592-3.072 2.8672-7.2704 4.4032-11.4688 4.1984z m0 0" fill="#FFF6DC" p-id="1052"></path><path d="M442.4704 332.5952h43.2128v355.4304h-43.2128z" fill="#BDE0FF" p-id="1053"></path><path d="M618.8032 274.6368c-7.2704 0-13.1072-5.8368-13.1072-13.1072 0-7.2704 5.8368-13.1072 13.1072-13.1072 7.2704 0 13.1072 5.8368 13.1072 13.1072 0 7.2704-5.8368 13.1072-13.1072 13.1072z m0-22.2208c-5.12 0-9.216 4.096-9.216 9.216s4.096 9.216 9.216 9.216 9.216-4.096 9.216-9.216-4.096-9.216-9.216-9.216z m0 0" fill="#A8E65B" p-id="1054"></path><path d="M390.2464 614.0928l9.5232 3.1744 9.5232-3.1744v10.0352l5.8368 8.192-9.5232 3.072-5.9392 8.0896-5.8368-8.192-9.6256-3.072 6.0416-8.0896zM859.5456 380.1088l11.776 3.9936 11.776-3.8912-0.1024 12.3904 7.2704 10.0352-11.776 3.7888-7.2704 9.9328-7.2704-10.0352-11.776-3.7888 7.3728-10.0352z" fill="#F7D462" p-id="1055"></path><path d="M268.4928 534.3232c-3.1744-3.072-7.2704-4.7104-11.5712-4.608 3.8912-0.1024 7.68-1.6384 10.8544-4.1984 3.4816-3.3792 5.3248-8.192 5.12-13.2096-0.2048-5.0176 0 8.2944 5.12 13.4144 3.072 2.7648 6.8608 4.1984 10.8544 3.9936-3.8912 0.3072-7.5776 1.7408-10.6496 4.1984-3.584 3.2768-5.5296 8.192-5.3248 13.312 0.2048-4.7104-1.4336-9.4208-4.4032-12.9024z m0 0" fill="#F98C8C" p-id="1056"></path><path d="M677.376 549.4784H551.7312c-2.3552 0-4.1984-1.8432-4.1984-4.1984s1.8432-4.1984 4.1984-4.1984h125.5424c2.3552 0 4.1984 1.8432 4.1984 4.1984 0 2.2528-1.8432 4.1984-4.096 4.1984zM677.376 611.5328H551.7312c-2.3552 0-4.1984-1.8432-4.1984-4.1984s1.8432-4.1984 4.1984-4.1984h125.5424c2.3552 0 4.1984 1.8432 4.1984 4.1984s-1.8432 4.1984-4.096 4.1984z" fill="#83D3FF" p-id="1057"></path></svg>